<svg id="visual" viewBox="0 0 1600 900" width="1600" height="900" xmlns="http://www.w3.org/2000/svg" xmlns:xlink="http://www.w3.org/1999/xlink" version="1.1"><rect x="0" y="0" width="1600" height="900" fill="#001220"></rect><path d="M0 548L38.2 567.7C76.3 587.3 152.7 626.7 228.8 633.3C305 640 381 614 457.2 605C533.3 596 609.7 604 685.8 606.8C762 609.7 838 607.3 914.2 605.8C990.3 604.3 1066.7 603.7 1142.8 606.3C1219 609 1295 615 1371.2 622.2C1447.3 629.3 1523.7 637.7 1561.8 641.8L1600 646L1600 901L1561.8 901C1523.7 901 1447.3 901 1371.2 901C1295 901 1219 901 1142.8 901C1066.7 901 990.3 901 914.2 901C838 901 762 901 685.8 901C609.7 901 533.3 901 457.2 901C381 901 305 901 228.8 901C152.7 901 76.3 901 38.2 901L0 901Z" fill="#fa7268"></path><path d="M0 671L38.2 658C76.3 645 152.7 619 228.8 624C305 629 381 665 457.2 682.7C533.3 700.3 609.7 699.7 685.8 702.5C762 705.3 838 711.7 914.2 703.8C990.3 696 1066.7 674 1142.8 658.5C1219 643 1295 634 1371.2 635.8C1447.3 637.7 1523.7 650.3 1561.8 656.7L1600 663L1600 901L1561.8 901C1523.7 901 1447.3 901 1371.2 901C1295 901 1219 901 1142.8 901C1066.7 901 990.3 901 914.2 901C838 901 762 901 685.8 901C609.7 901 533.3 901 457.2 901C381 901 305 901 228.8 901C152.7 901 76.3 901 38.2 901L0 901Z" fill="#ef5f67"></path><path d="M0 662L38.2 679.5C76.3 697 152.7 732 228.8 742.3C305 752.7 381 738.3 457.2 733.2C533.3 728 609.7 732 685.8 730.5C762 729 838 722 914.2 714.3C990.3 706.7 1066.7 698.3 1142.8 692.8C1219 687.3 1295 684.7 1371.2 679.2C1447.3 673.7 1523.7 665.3 1561.8 661.2L1600 657L1600 901L1561.8 901C1523.7 901 1447.3 901 1371.2 901C1295 901 1219 901 1142.8 901C1066.7 901 990.3 901 914.2 901C838 901 762 901 685.8 901C609.7 901 533.3 901 457.2 901C381 901 305 901 228.8 901C152.7 901 76.3 901 38.2 901L0 901Z" fill="#e34c67"></path><path d="M0 783L38.2 784.5C76.3 786 152.7 789 228.8 794C305 799 381 806 457.2 805.8C533.3 805.7 609.7 798.3 685.8 785.5C762 772.7 838 754.3 914.2 755.5C990.3 756.7 1066.7 777.3 1142.8 786.2C1219 795 1295 792 1371.2 783.5C1447.3 775 1523.7 761 1561.8 754L1600 747L1600 901L1561.8 901C1523.7 901 1447.3 901 1371.2 901C1295 901 1219 901 1142.8 901C1066.7 901 990.3 901 914.2 901C838 901 762 901 685.8 901C609.7 901 533.3 901 457.2 901C381 901 305 901 228.8 901C152.7 901 76.3 901 38.2 901L0 901Z" fill="#d53867"></path><path d="M0 825L38.2 823C76.3 821 152.7 817 228.8 811.3C305 805.7 381 798.3 457.2 794.3C533.3 790.3 609.7 789.7 685.8 795.7C762 801.7 838 814.3 914.2 821.5C990.3 828.7 1066.7 830.3 1142.8 826.2C1219 822 1295 812 1371.2 816.7C1447.3 821.3 1523.7 840.7 1561.8 850.3L1600 860L1600 901L1561.8 901C1523.7 901 1447.3 901 1371.2 901C1295 901 1219 901 1142.8 901C1066.7 901 990.3 901 914.2 901C838 901 762 901 685.8 901C609.7 901 533.3 901 457.2 901C381 901 305 901 228.8 901C152.7 901 76.3 901 38.2 901L0 901Z" fill="#c62368"></path></svg>